<svg width="54" height="54" fill="none" xmlns="http://www.w3.org/2000/svg"><g filter="url(#filter0_d)"><path d="M48 23c0 11.598-9.402 21-21 21S6 34.598 6 23 15.402 2 27 2s21 9.402 21 21z" stroke="#2D9CDB" stroke-width="4"/><path d="M17.462 19.64c1.056 0 1.878.264 2.466.792.588.528.882 1.392.882 2.592V29h-2.682v-5.418c0-1.152-.576-1.728-1.728-1.728-.276 0-.558.042-.846.126-.288.084-.51.186-.666.306L14.852 29h-2.664V16.292h2.7v4.014a5.379 5.379 0 012.574-.666zm5.604 6.822h2.61V29h-2.61v-2.538zM28.411 29V15.992h2.558l3.603 10.064 3.71-10.064h2.284V29h-1.722V18.418l-3.586 9.712h-1.784l-3.48-9.738V29H28.41z" fill="#fff"/></g><defs><filter id="filter0_d" x="0" y="0" width="54" height="54" filterUnits="userSpaceOnUse" color-interpolation-filters="sRGB"><feFlood flood-opacity="0" result="BackgroundImageFix"/><feColorMatrix in="SourceAlpha" values="0 0 0 0 0 0 0 0 0 0 0 0 0 0 0 0 0 0 127 0"/><feOffset dy="4"/><feGaussianBlur stdDeviation="2"/><feColorMatrix values="0 0 0 0 0 0 0 0 0 0 0 0 0 0 0 0 0 0 0.25 0"/><feBlend in2="BackgroundImageFix" result="effect1_dropShadow"/><feBlend in="SourceGraphic" in2="effect1_dropShadow" result="shape"/></filter></defs></svg>